<svg xmlns="http://www.w3.org/2000/svg" viewBox="0 0 512 512">
  <defs>
    <linearGradient id="bg" x1="68" y1="40" x2="444" y2="472" gradientUnits="userSpaceOnUse">
      <stop stop-color="#07594f"/>
      <stop offset="1" stop-color="#06483f"/>
    </linearGradient>
  </defs>
  <rect width="512" height="512" rx="112" fill="url(#bg)"/>
  <g fill="none" stroke="#fffaf2" stroke-width="18" stroke-linecap="round" stroke-linejoin="round">
    <path d="M77 265 188 137l143 38-93 116-161-26Z"/>
    <path d="m188 137 50 154"/>
    <path d="m77 265 88 79 73-53"/>
    <path d="m165 344 73-53 93-116 71 41-69 98"/>
    <rect x="277" y="226" width="146" height="164" rx="28"/>
    <rect x="300" y="250" width="100" height="39" rx="7"/>
    <path d="M102 421h308"/>
  </g>
  <g fill="#e79a24" stroke="#fffaf2" stroke-width="12">
    <circle cx="112" cy="421" r="18"/>
    <circle cx="256" cy="421" r="18"/>
    <circle cx="400" cy="421" r="18"/>
    <circle cx="313" cy="324" r="13"/>
    <circle cx="356" cy="324" r="13"/>
    <circle cx="313" cy="365" r="13"/>
    <circle cx="356" cy="365" r="13"/>
    <rect x="388" y="311" width="18" height="67" rx="9"/>
  </g>
</svg>
